<svg xmlns="http://www.w3.org/2000/svg" viewBox="0 0 520 620">
  <defs>
    <linearGradient id="ring" x1="0" y1="0" x2="1" y2="1">
      <stop offset="0" stop-color="#1c9cff"/>
      <stop offset="0.48" stop-color="#20d0d1"/>
      <stop offset="1" stop-color="#62dc73"/>
    </linearGradient>
    <linearGradient id="text" x1="0" y1="0" x2="1" y2="0">
      <stop offset="0" stop-color="#279dff"/>
      <stop offset="0.5" stop-color="#3ed4d1"/>
      <stop offset="1" stop-color="#62dc73"/>
    </linearGradient>
    <filter id="glow" x="-40%" y="-40%" width="180%" height="180%">
      <feGaussianBlur stdDeviation="8" result="b"/>
      <feMerge><feMergeNode in="b"/><feMergeNode in="SourceGraphic"/></feMerge>
    </filter>
  </defs>
  <circle cx="260" cy="220" r="170" fill="none" stroke="url(#ring)" stroke-width="34" opacity=".9"/>
  <path d="M272 66c-80 56-92 140-41 193 31 32 79 36 112 12 35-26 37-83 7-111-27-26-71-18-87 15-12 26-1 57 23 67"
        fill="none" stroke="url(#ring)" stroke-width="24" stroke-linecap="round" filter="url(#glow)"/>
  <path d="M275 70v290c0 46-35 82-81 82-38 0-69-22-69-52 0-31 32-56 72-56 25 0 47 8 62 22"
        fill="none" stroke="url(#ring)" stroke-width="18" stroke-linecap="round"/>
  <g transform="translate(120 310)">
    <rect x="0" y="0" width="280" height="105" rx="14" fill="#eef9ff"/>
    <g fill="#0a1524">
      <rect x="34" y="0" width="31" height="64" rx="3"/>
      <rect x="92" y="0" width="31" height="64" rx="3"/>
      <rect x="177" y="0" width="31" height="64" rx="3"/>
      <rect x="235" y="0" width="31" height="64" rx="3"/>
    </g>
    <g stroke="#99b6c8" stroke-width="3">
      <line x1="56" y1="0" x2="56" y2="105"/>
      <line x1="112" y1="0" x2="112" y2="105"/>
      <line x1="168" y1="0" x2="168" y2="105"/>
      <line x1="224" y1="0" x2="224" y2="105"/>
    </g>
  </g>
  <text x="260" y="515" text-anchor="middle" font-family="Segoe UI,Arial,sans-serif"
        font-size="92" font-weight="900" letter-spacing="8" fill="url(#text)">UAOS</text>
  <text x="260" y="564" text-anchor="middle" font-family="Segoe UI,Arial,sans-serif"
        font-size="22" font-weight="700" letter-spacing="5" fill="#d7e7ef">UNIVERSAL ARRANGER OS</text>
</svg>
